<svg class="img-fluid" id="outputsvg" xmlns="http://www.w3.org/2000/svg" style="transform: matrix(1, 0, 0, 1, 0, 0); transform-origin: 50% 50%; cursor: move; max-height: none; transition: transform 200ms ease-in-out 0s;" width="400" height="400" viewBox="0 0 4000 4000"><g id="l7ZT2Z0rCSFxQ73BpEeofVT" fill="rgb(47,31,30)" style="transform: none;"><g><path id="pgKW32COm" d="M0 2280 c0 -1613 1 -1720 17 -1720 9 0 32 14 50 32 27 26 33 29 33 14 0 -16 6 -18 53 -12 77 10 94 8 118 -11 52 -42 59 -53 59 -93 0 -27 5 -43 15 -46 8 -3 17 -21 21 -40 6 -31 9 -34 41 -34 l36 0 -7 54 -6 53 38 7 c57 9 60 8 76 -22 29 -57 65 -82 115 -82 26 0 52 5 58 11 8 8 32 7 88 -5 88 -18 145 -21 145 -6 0 6 7 10 15 10 8 0 15 9 15 20 0 15 7 20 25 20 19 0 25 5 25 21 0 19 5 20 88 18 79 -2 104 1 195 26 21 6 27 4 27 -9 0 -23 32 -36 90 -36 l51 0 -2 52 c-3 49 -1 53 31 74 19 13 50 23 68 23 27 1 32 -3 32 -21 0 -54 11 -68 49 -68 30 0 44 8 77 42 44 47 64 85 64 123 0 13 5 27 10 30 6 3 10 19 10 36 0 23 4 29 21 29 12 0 36 7 55 16 40 19 163 15 189 -6 8 -7 15 -29 15 -50 0 -42 13 -50 86 -50 34 0 45 5 58 25 13 20 25 25 61 25 38 0 44 3 47 23 3 21 7 22 103 22 77 0 108 4 135 18 46 24 80 77 80 123 l0 37 -112 -6 c-101 -6 -114 -9 -138 -32 -14 -14 -29 -25 -33 -25 -4 0 -7 18 -7 41 l0 41 -128 -3 c-222 -5 -660 29 -689 53 -24 20 -14 38 19 38 25 0 42 11 82 53 49 51 56 55 156 82 233 63 355 158 421 330 30 79 45 164 54 311 5 90 3 106 -14 135 -11 19 -27 57 -36 84 -21 62 -31 73 -128 147 -43 33 -113 92 -156 131 -43 40 -101 85 -131 100 -29 16 -49 32 -44 36 5 5 80 4 167 -1 137 -8 163 -8 192 6 18 9 42 16 52 16 11 0 37 13 59 28 21 16 64 39 94 51 53 22 58 22 93 8 37 -16 97 -94 97 -127 0 -9 11 -38 24 -65 l25 -48 -25 -52 c-24 -52 -32 -129 -15 -140 5 -3 7 -30 4 -60 -5 -51 -4 -55 16 -55 17 0 21 -6 21 -30 0 -16 5 -30 10 -30 6 0 10 -9 10 -21 0 -11 11 -39 24 -62 17 -30 26 -65 31 -124 6 -71 11 -87 36 -115 16 -18 29 -42 29 -53 0 -11 9 -31 20 -45 11 -14 20 -31 20 -38 0 -8 21 -33 47 -57 34 -32 61 -47 96 -55 68 -14 83 -13 123 13 l35 22 -7 60 c-9 82 -11 466 -1 472 4 2 7 15 7 27 0 13 13 48 30 79 16 31 30 63 30 71 0 7 7 19 15 26 8 7 15 24 15 39 0 31 9 45 33 54 11 4 17 17 17 37 0 24 4 30 21 30 21 0 21 -2 14 -139 -6 -133 -6 -140 13 -150 12 -6 37 -11 56 -11 31 0 36 4 42 28 36 156 67 177 232 160 108 -11 109 -11 126 -43 10 -18 31 -42 47 -54 24 -18 29 -29 29 -64 0 -23 -6 -54 -14 -69 -8 -14 -19 -71 -25 -126 -6 -55 -15 -112 -21 -127 -5 -14 -10 -42 -10 -61 0 -32 2 -34 34 -34 29 0 36 5 50 35 22 45 53 144 61 192 4 21 15 57 26 80 10 24 19 47 19 53 0 7 6 8 19 0 11 -5 31 -10 45 -10 23 0 26 4 26 37 0 23 -7 45 -20 58 -21 22 -21 23 -3 96 16 67 18 156 21 947 l3 872 -2001 0 -2000 0 0 -1720z m1283 460 c54 -57 57 -63 51 -99 -5 -34 -10 -38 -52 -50 -26 -7 -70 -24 -97 -37 -28 -13 -54 -24 -59 -24 -6 0 -20 -10 -33 -22 -18 -17 -23 -32 -23 -70 0 -27 5 -58 10 -69 9 -15 7 -21 -5 -25 -33 -13 -48 -65 -50 -179 -3 -116 -9 -145 -30 -145 -7 0 -22 -15 -33 -32 -18 -30 -20 -53 -21 -224 -1 -206 4 -235 67 -379 35 -81 101 -175 122 -175 10 0 23 -7 30 -15 8 -10 31 -15 71 -15 33 0 59 -4 59 -10 0 -5 16 -10 36 -10 l37 0 -7 63 c-3 34 -12 67 -20 72 -7 6 -17 35 -21 64 -4 30 -14 69 -21 87 -29 69 -13 66 21 -4 18 -39 57 -108 85 -152 55 -84 59 -109 22 -125 -12 -5 -28 -25 -34 -42 -7 -18 -19 -33 -28 -33 -8 0 -51 16 -95 36 -44 19 -91 39 -105 44 -105 36 -178 76 -290 158 -14 10 -51 27 -84 37 -32 10 -67 26 -76 35 -23 23 -15 70 11 70 15 0 19 7 19 31 0 48 -21 110 -50 149 -34 45 -50 84 -50 119 0 15 -11 42 -25 61 -29 39 -31 50 -10 50 12 0 15 14 15 68 0 44 5 75 15 88 8 10 15 27 15 37 0 10 8 21 18 24 9 4 20 11 24 17 11 16 10 110 -2 141 -6 15 -6 33 -1 43 5 9 13 28 19 43 7 17 23 29 51 39 23 7 41 17 41 22 0 4 22 8 49 8 31 0 57 6 72 18 13 10 31 21 40 24 12 5 18 26 22 82 7 84 29 146 50 146 8 0 37 10 65 21 41 17 53 28 62 55 21 62 52 58 123 -16z m530 -551 c44 -11 67 -40 67 -85 0 -21 6 -23 85 -29 81 -7 86 -9 116 -43 43 -49 79 -129 92 -207 18 -106 -11 -212 -90 -332 -41 -64 -52 -73 -128 -114 -66 -35 -157 -59 -228 -59 -42 0 -70 8 -125 35 -78 39 -129 89 -166 164 -28 54 -49 161 -36 175 14 14 39 -1 50 -30 6 -14 19 -37 29 -50 10 -13 22 -44 25 -69 5 -29 19 -58 42 -86 19 -22 34 -52 34 -66 0 -22 3 -24 37 -21 35 3 38 6 47 43 5 22 15 44 22 48 8 4 14 23 14 41 0 29 -4 35 -27 41 -33 8 -63 33 -63 52 0 10 16 13 67 11 l67 -3 7 35 c14 77 51 130 90 130 33 0 59 49 59 109 0 36 -11 70 -43 137 -24 49 -51 95 -60 103 -10 7 -17 20 -17 29 0 8 -7 24 -17 34 -19 21 -10 23 50 7z m-1128 -1699 c3 -5 -3 -10 -14 -10 -12 0 -21 5 -21 10 0 6 6 10 14 10 8 0 18 -4 21 -10z"></path><path id="pERzJNm3b" d="M3970 1055 c0 -16 6 -25 15 -25 9 0 15 9 15 25 0 16 -6 25 -15 25 -9 0 -15 -9 -15 -25z"></path></g></g><g id="l15IH0kr2bxSJjFen0bqfQg" fill="rgb(117,83,73)" style="transform: none;"><g><path id="pZ7LZDCLN" d="M0 3990 c0 -6 28 -10 64 -10 36 0 68 5 71 10 4 6 -20 10 -64 10 -41 0 -71 -4 -71 -10z"></path><path id="pDfenNkuu" d="M800 3980 c0 -18 4 -20 43 -13 23 3 62 12 87 19 l45 12 -87 1 c-82 1 -88 0 -88 -19z"></path><path id="pUKiaUSMZ" d="M1226 2993 c-4 -9 -1 -23 7 -30 12 -12 16 -12 26 0 13 17 5 47 -14 47 -7 0 -16 -8 -19 -17z"></path><path id="pmNDlfost" d="M1205 2835 c-5 -2 -22 -6 -37 -9 -19 -4 -30 -16 -38 -40 -9 -28 -20 -38 -63 -54 -29 -12 -62 -23 -74 -27 -13 -3 -22 -9 -22 -13 4 -27 -3 -44 -15 -39 -11 4 -13 1 -10 -11 5 -14 3 -13 -10 2 -9 11 -16 15 -16 8 0 -6 9 -17 21 -26 16 -11 19 -20 13 -38 -4 -12 -6 -40 -5 -61 2 -28 -2 -39 -16 -44 -10 -3 -29 -15 -42 -25 -33 -25 -77 -24 -84 3 -5 17 -9 19 -27 9 -14 -7 -19 -17 -15 -29 4 -14 -4 -21 -36 -31 -28 -10 -44 -22 -51 -39 -6 -15 -14 -34 -19 -43 -12 -24 -11 -63 2 -108 14 -47 6 -86 -21 -93 -11 -3 -20 -12 -20 -21 0 -8 -9 -30 -20 -48 -16 -26 -18 -43 -13 -93 3 -33 3 -57 0 -54 -4 3 -9 27 -11 53 -6 53 -10 61 -24 52 -19 -12 -23 -74 -7 -112 8 -20 15 -44 15 -53 0 -10 11 -32 24 -50 14 -19 22 -40 19 -52 -6 -22 17 -74 58 -129 25 -35 53 -110 44 -119 -3 -2 -15 5 -28 16 -16 15 -31 19 -54 16 -18 -3 -33 -8 -33 -11 0 -3 16 -24 35 -47 19 -23 32 -45 29 -48 -5 -4 22 -66 29 -67 20 -3 138 -50 157 -63 93 -65 170 -113 200 -123 51 -19 123 -48 220 -88 114 -48 136 -47 156 3 8 21 24 41 35 44 24 6 42 53 34 87 -4 14 -28 59 -54 100 -101 158 -141 270 -141 396 0 54 -12 69 -28 37 -13 -26 -24 -161 -13 -167 4 -3 4 -23 -2 -44 -9 -33 -7 -51 13 -111 12 -39 23 -92 24 -119 1 -28 6 -47 13 -47 16 0 19 -5 26 -43 6 -30 5 -32 -8 -18 -11 11 -28 14 -63 9 -37 -4 -51 -2 -61 11 -7 9 -21 16 -31 16 -21 0 -87 94 -122 175 -61 139 -66 169 -64 351 2 143 6 174 21 197 9 15 23 27 30 27 22 0 35 60 33 160 -1 100 14 151 47 164 12 4 15 17 14 51 -2 25 -5 45 -9 45 -3 0 -5 11 -5 25 2 26 31 65 49 65 6 0 33 11 61 24 27 13 71 30 96 37 43 12 48 16 53 48 3 20 16 44 28 54 l23 18 -30 22 c-16 12 -54 48 -84 80 -49 52 -67 62 -96 52z"></path><path id="pMEnuS2l5" d="M189 2683 c-9 -2 -21 -15 -27 -28 l-12 -25 43 26 c23 15 44 28 46 30 6 5 -29 3 -50 -3z"></path><path id="porWp5tZh" d="M890 2649 c-8 -4 -28 -10 -43 -14 -38 -8 -34 -45 6 -56 24 -7 27 -5 22 11 -4 12 2 23 16 33 24 17 23 39 -1 26z"></path><path id="p1EdgvRTMC" d="M2314 2597 c-28 -12 -69 -34 -90 -49 -22 -16 -49 -28 -60 -28 -10 0 -32 -7 -47 -15 -24 -12 -53 -13 -189 -4 -146 9 -162 8 -179 -7 -34 -31 -23 -51 49 -90 37 -21 99 -67 137 -104 39 -36 106 -93 150 -127 100 -75 109 -86 130 -148 9 -27 24 -64 34 -80 15 -27 17 -45 10 -140 -8 -126 -20 -183 -53 -265 -65 -159 -190 -254 -416 -315 -100 -27 -107 -31 -156 -82 -61 -65 -80 -69 -58 -14 12 32 13 44 4 62 l-12 22 -19 -24 c-10 -13 -19 -39 -19 -56 0 -22 -7 -37 -20 -45 -24 -15 -26 -34 -5 -42 8 -3 15 -14 15 -24 0 -47 4 -48 465 -79 61 -4 168 -6 238 -5 120 3 129 2 125 -15 -2 -10 -16 -24 -31 -31 -18 -9 -27 -21 -27 -38 0 -21 5 -24 35 -24 40 0 88 21 125 55 20 19 41 25 108 31 45 3 82 4 82 0 0 -3 -10 -22 -22 -41 -25 -37 -101 -77 -134 -70 -10 2 -46 6 -80 8 -66 5 -99 -9 -88 -37 6 -14 1 -16 -34 -10 -36 6 -42 3 -61 -23 -15 -20 -30 -29 -44 -27 -12 1 -28 3 -35 3 -8 1 -10 9 -6 26 10 40 -18 73 -68 79 -116 15 -172 16 -188 1 -9 -8 -34 -18 -56 -23 -33 -7 -39 -12 -39 -34 0 -14 -3 -30 -7 -34 -5 -4 -8 -18 -8 -30 0 -13 -5 -36 -12 -51 -14 -32 -87 -113 -103 -113 -5 0 -2 5 8 11 25 15 21 32 -5 23 -23 -6 -23 -6 2 21 22 25 22 27 5 21 -17 -6 -17 -4 4 18 29 31 22 44 -11 23 -29 -19 -123 -33 -113 -18 9 16 -10 13 -24 -3 -6 -7 -31 -26 -56 -42 -47 -29 -56 -52 -30 -74 22 -18 18 -35 -7 -37 -29 -3 -58 15 -52 31 3 7 -2 16 -11 20 -16 6 -136 -17 -181 -34 -13 -5 -24 -3 -30 5 -11 17 -84 31 -84 17 0 -6 8 -13 18 -15 9 -2 -3 -2 -28 0 -25 3 -70 7 -100 9 -30 2 -63 7 -73 10 -17 5 -18 2 -12 -28 4 -18 8 -34 9 -34 0 -1 17 -11 36 -23 l35 -22 -30 7 c-27 7 -29 6 -16 -9 11 -14 11 -17 0 -17 -7 0 -23 12 -35 27 -13 16 -26 24 -31 19 -4 -5 -2 -11 5 -13 26 -10 10 -22 -20 -16 -40 7 -68 30 -68 54 0 29 -59 63 -114 67 -41 2 -48 0 -42 -14 3 -9 9 -28 12 -42 9 -38 24 -53 45 -47 22 7 36 -13 14 -21 -27 -11 -60 15 -96 72 -35 56 -46 62 -81 43 -11 -6 -35 -11 -54 -11 -18 0 -41 -6 -51 -13 -14 -11 -15 -15 -4 -29 7 -8 11 -21 8 -28 -4 -9 -6 -7 -6 3 -1 9 -8 19 -16 23 -10 3 -15 19 -15 44 0 41 -11 60 -50 86 -13 9 -19 16 -13 16 9 0 9 8 2 30 -6 17 -15 30 -19 30 -12 0 -21 -30 -13 -43 4 -7 0 -8 -13 -2 -10 4 -29 8 -42 8 -21 -1 -22 0 -8 16 15 16 14 20 -8 44 -14 15 -28 27 -31 27 -6 0 -45 -33 -117 -99 -37 -33 -48 -51 -48 -74 l0 -29 47 7 c25 4 57 14 70 22 21 14 23 14 23 -2 0 -16 7 -17 60 -12 59 7 60 6 60 -18 0 -21 5 -25 29 -25 28 0 30 -3 36 -47 14 -111 14 -110 56 -132 64 -34 179 -25 179 13 0 15 165 29 311 26 83 -2 88 0 122 29 30 27 42 31 91 31 49 0 56 2 56 20 0 18 7 20 60 20 32 0 71 5 85 12 21 10 32 8 64 -10 80 -45 171 -15 171 57 0 18 -5 31 -12 31 -23 1 25 30 49 30 21 0 23 -5 23 -45 l0 -45 50 0 c47 0 55 4 100 46 46 43 59 67 74 137 4 15 12 27 19 27 7 0 17 10 22 22 6 13 20 24 33 26 14 2 27 14 33 29 8 21 12 23 24 13 9 -8 32 -11 59 -8 24 3 55 0 72 -8 28 -12 28 -13 7 -19 -19 -6 -23 -15 -23 -46 0 -38 1 -39 35 -39 24 0 35 -5 35 -15 0 -11 11 -15 37 -15 30 0 43 7 77 44 39 42 43 45 82 39 51 -7 193 21 246 48 22 11 55 36 74 55 30 31 34 42 34 86 l0 50 -96 -7 c-53 -4 -109 -11 -125 -15 -24 -7 -29 -6 -29 9 0 33 -49 40 -310 45 -276 6 -500 19 -520 31 -8 5 -1 14 21 27 18 11 41 31 52 44 16 21 27 24 81 24 72 0 133 23 183 68 18 17 66 51 108 77 78 49 157 127 183 183 9 17 19 32 24 32 4 0 8 7 8 15 0 8 5 15 10 15 6 0 30 20 53 44 42 43 43 43 125 48 57 3 87 10 100 21 10 10 24 17 30 17 7 0 12 5 12 10 0 25 28 5 64 -45 51 -71 185 -205 206 -205 9 0 21 -5 27 -11 6 -6 55 -11 109 -12 96 -2 99 -1 102 21 2 12 8 22 13 22 7 0 10 35 10 88 -2 116 4 232 13 259 9 28 32 36 50 18 10 -11 38 -15 96 -15 78 0 81 1 93 28 16 37 36 51 75 52 28 0 32 -3 32 -26 0 -27 0 -27 60 -21 47 5 60 4 60 -7 0 -8 16 -17 37 -21 35 -6 36 -8 19 -21 -15 -10 -18 -22 -13 -54 5 -40 5 -40 -29 -40 -32 0 -34 -2 -34 -35 0 -19 5 -35 10 -35 6 0 10 -7 10 -15 0 -11 -5 -12 -26 -5 -14 6 -38 10 -53 10 -26 0 -29 -3 -34 -47 -3 -26 -10 -49 -16 -51 -6 -2 -11 -12 -11 -23 0 -16 -7 -19 -43 -19 -37 0 -46 -4 -55 -25 -7 -14 -12 -41 -12 -60 0 -34 1 -35 39 -35 22 0 43 5 46 10 3 6 40 10 81 10 l75 0 50 51 c27 28 67 77 88 108 39 57 151 280 151 300 0 6 14 11 30 11 17 0 30 5 30 13 1 7 6 5 14 -5 7 -10 23 -18 35 -18 20 0 21 4 21 104 l0 104 -46 26 c-26 14 -50 26 -54 26 -4 0 -15 -21 -25 -47 -10 -27 -21 -52 -25 -58 -4 -5 -10 -29 -14 -53 -8 -56 -54 -191 -73 -217 -14 -19 -15 -19 -7 5 16 56 24 97 24 137 0 23 5 45 11 49 6 3 8 16 5 29 -3 13 1 36 9 51 9 18 15 57 15 101 0 66 -2 73 -27 93 -16 12 -38 38 -50 58 -19 31 -29 37 -60 40 -21 1 -63 4 -93 7 -87 7 -133 5 -165 -7 -35 -13 -75 -54 -75 -77 0 -9 -7 -27 -16 -39 -9 -13 -14 -29 -11 -36 10 -25 -8 -39 -33 -26 -20 11 -22 17 -16 73 3 34 7 98 8 142 l3 79 -68 2 c-56 1 -69 -2 -77 -17 -14 -25 -13 -29 9 -29 28 0 37 -20 12 -27 -21 -5 -37 -36 -33 -64 2 -9 -4 -22 -13 -29 -8 -7 -15 -18 -15 -25 0 -18 -48 -113 -61 -120 -5 -4 -7 -15 -4 -25 3 -11 -1 -31 -11 -45 -14 -21 -15 -32 -6 -67 8 -31 8 -46 0 -56 -8 -10 -9 -16 -1 -20 7 -5 8 -48 3 -137 -5 -97 -3 -141 6 -175 19 -61 18 -62 -19 -86 -47 -29 -99 -16 -160 40 -26 25 -47 49 -47 56 0 6 -8 22 -17 37 -10 14 -17 34 -18 44 0 9 -13 32 -29 50 -16 18 -31 44 -32 58 -2 14 -7 53 -10 86 -4 35 -16 78 -30 101 -22 39 -22 43 -6 49 15 5 13 9 -11 23 -19 12 -27 25 -27 44 0 22 -5 28 -21 28 -14 0 -19 5 -16 14 17 43 18 83 3 95 -21 18 -20 27 9 86 31 64 31 98 0 159 -14 27 -25 57 -25 66 0 9 -14 37 -30 64 -49 77 -128 96 -226 53z m64 -344 c0 -32 3 -111 7 -175 8 -118 3 -137 -25 -103 -8 9 -10 27 -6 47 19 95 19 96 -13 135 -20 24 -27 41 -21 47 6 6 10 17 10 26 0 15 36 80 44 80 2 0 4 -26 4 -57z m-2213 -1623 c-27 -12 -35 -12 -35 0 0 6 12 10 28 9 24 0 25 -1 7 -9z m833 -158 c6 -18 -15 -14 -22 4 -4 10 -1 14 6 12 6 -2 14 -10 16 -16z m-453 -22 c24 -46 20 -57 -25 -62 -33 -3 -40 0 -40 14 0 11 8 18 20 18 16 0 20 7 20 30 0 38 5 38 25 0z"></path><path id="ppp5HSUMK" d="M835 2520 c-16 -18 -17 -23 -5 -30 18 -12 22 -12 38 -1 16 9 13 42 -4 48 -6 2 -19 -6 -29 -17z"></path><path id="p1AIJ50DZR" d="M1631 2448 c-5 -13 -12 -31 -15 -40 -3 -11 -12 -15 -26 -11 -15 4 -19 11 -15 24 4 11 2 19 -4 19 -6 0 -14 0 -17 0 -4 0 -7 -32 -9 -72 -1 -58 -6 -74 -23 -88 -11 -9 -27 -33 -36 -53 -10 -25 -21 -37 -35 -37 -23 0 -36 -16 -20 -25 6 -4 23 4 37 18 29 27 124 92 144 100 10 4 11 7 1 18 -7 7 -12 27 -12 44 l2 30 6 -34 c12 -65 49 -48 58 26 9 83 -14 136 -36 81z"></path><path id="pRf2OzYV9" d="M3967 2370 c-6 -85 -13 -125 -39 -226 -12 -49 -3 -72 40 -103 l28 -20 3 220 c1 181 -1 219 -12 219 -10 0 -16 -23 -20 -90z"></path><path id="puyx6FJ0d" d="M2905 2368 c3 -13 8 -32 9 -43 2 -19 7 -21 37 -16 16 2 2 53 -18 69 -25 18 -36 15 -28 -10z"></path><path id="pURAW0djD" d="M1687 2220 c-49 -13 -87 -33 -110 -58 -18 -19 -17 -20 20 -25 21 -3 47 -7 58 -9 14 -2 20 3 20 17 0 15 6 19 24 17 31 -3 51 -20 51 -42 0 -10 7 -24 17 -31 20 -17 103 -186 103 -210 0 -33 -33 -76 -57 -76 -39 0 -93 -81 -93 -139 0 -24 -16 -42 -22 -24 -2 6 -27 8 -67 4 l-63 -7 6 -41 c6 -36 38 -86 55 -84 3 0 15 0 26 -1 18 -2 19 -3 3 -14 -9 -7 -19 -30 -23 -50 -8 -44 -25 -59 -25 -24 0 14 -15 44 -34 66 -23 27 -37 57 -41 86 -4 24 -18 59 -31 76 -13 18 -24 38 -24 45 0 15 -24 35 -47 38 -15 3 -18 13 -19 57 0 69 -2 79 -13 79 -10 0 -27 -68 -36 -145 -8 -68 10 -177 41 -236 37 -75 88 -125 166 -164 64 -32 78 -35 155 -35 123 0 241 36 330 101 19 14 78 100 106 154 65 129 61 327 -11 458 -48 89 -184 192 -278 212 -56 12 -149 14 -187 5z m296 -71 c20 -13 39 -30 41 -36 9 -23 -30 -14 -54 12 l-23 24 -19 -22 -19 -22 6 23 c5 15 1 30 -10 42 -17 19 -16 19 12 11 16 -5 46 -19 66 -32z"></path><path id="p17hGm2pRH" d="M1347 2053 c-10 -9 -9 -23 2 -23 5 0 11 7 15 15 5 15 -5 20 -17 8z"></path><path id="p9emZv8hp" d="M1400 1895 c0 -9 6 -12 15 -9 8 4 12 10 9 15 -8 14 -24 10 -24 -6z"></path><path id="pov21e7L9" d="M3480 1755 c0 -33 2 -35 35 -35 33 0 35 2 35 35 0 33 -2 35 -35 35 -33 0 -35 -2 -35 -35z"></path><path id="pxTw3kEEF" d="M3947 1093 c-4 -3 -7 -21 -7 -40 0 -30 3 -33 29 -33 27 0 29 3 29 40 1 35 -2 40 -22 40 -12 0 -26 -3 -29 -7z"></path><path id="pmaI2ku8X" d="M3810 1030 c0 -5 -8 -10 -17 -10 -9 0 -54 -12 -100 -27 -82 -27 -83 -28 -83 -60 0 -31 2 -33 34 -33 51 0 196 45 196 61 0 5 9 9 20 9 16 0 20 7 20 35 0 33 -2 35 -35 35 -19 0 -35 -4 -35 -10z"></path><path id="pGPLLhcP3" d="M1586 850 c-25 -26 -15 -47 26 -52 18 -3 41 -8 51 -13 11 -5 17 -3 17 7 0 15 -34 48 -50 48 -6 0 -10 7 -10 15 0 20 -11 18 -34 -5z"></path><path id="p1DLIwC9zo" d="M218 773 c5 -10 8 -23 5 -29 -2 -6 6 -19 17 -29 11 -10 20 -14 20 -10 0 16 -35 84 -43 85 -4 0 -4 -8 1 -17z"></path><path id="pBVJjgWxD" d="M1616 750 c-14 -29 -12 -70 4 -70 13 0 32 29 25 39 -3 6 -1 19 4 30 8 14 7 20 -4 25 -9 3 -19 -6 -29 -24z"></path><path id="pUGd6U2EL" d="M0 701 c0 -14 5 -19 15 -14 17 6 15 25 -3 31 -7 2 -12 -5 -12 -17z"></path></g></g><g id="l65OTk1nVuRxGaCGIzdkNjF" fill="rgb(169,131,114)" style="transform: none;"><g><path id="p1Ex1xFoee" d="M1631 2421 c-6 -11 -11 -40 -11 -65 0 -36 4 -46 16 -46 12 0 15 6 10 25 -4 14 -2 25 4 25 11 0 10 69 -1 76 -4 2 -13 -4 -18 -15z"></path><path id="pQibxQ09k" d="M2341 2331 c-17 -16 -34 -43 -37 -60 -4 -17 -11 -34 -15 -37 -20 -12 -9 -70 20 -104 23 -28 27 -39 19 -54 -6 -10 -11 -41 -12 -68 -1 -41 3 -53 23 -69 47 -38 116 -15 91 31 -6 12 -9 47 -6 84 2 34 -1 89 -8 122 -10 47 -10 69 1 109 11 44 11 51 -4 63 -25 18 -38 15 -72 -17z"></path><path id="pRLxE279r" d="M3983 2275 c-3 -9 -3 -31 0 -50 4 -24 1 -37 -8 -42 -8 -5 -16 -20 -19 -36 -2 -15 -7 -35 -10 -45 -4 -12 4 -28 24 -47 l30 -29 0 132 c0 126 -3 151 -17 117z"></path><path id="pqVclSLO9" d="M1865 2180 c16 -16 33 -30 39 -30 5 0 -3 14 -19 30 -16 17 -33 30 -39 30 -5 0 3 -13 19 -30z"></path><path id="plADAORQW" d="M1930 2105 c0 -8 7 -15 16 -15 14 0 14 3 4 15 -7 8 -14 15 -16 15 -2 0 -4 -7 -4 -15z"></path><path id="pAOTlfxP7" d="M3445 1889 c-4 -5 -19 -8 -33 -5 -31 6 -61 -15 -79 -56 -11 -24 -16 -26 -65 -25 -41 1 -58 7 -75 24 -12 13 -24 19 -27 14 -3 -5 -19 -11 -34 -14 -31 -6 -55 -46 -53 -89 3 -84 0 -110 -15 -133 -13 -20 -14 -29 -5 -34 6 -4 9 -15 5 -24 -3 -9 -2 -17 3 -17 4 0 9 -18 9 -40 1 -22 -2 -40 -7 -40 -4 0 -9 -10 -11 -22 -3 -21 -7 -23 -68 -21 -36 2 -74 7 -85 12 -11 5 -28 12 -38 15 -11 3 -15 11 -11 17 4 7 3 9 -3 6 -14 -9 -121 100 -190 191 -51 68 -56 72 -72 58 -10 -9 -23 -16 -29 -16 -7 0 -12 -4 -12 -10 0 -5 -5 -10 -12 -10 -6 0 -20 -7 -30 -17 -13 -11 -43 -18 -100 -21 -82 -5 -83 -5 -125 -48 -23 -24 -47 -44 -53 -44 -5 0 -10 -7 -10 -15 0 -8 -4 -15 -8 -15 -5 0 -15 -15 -24 -32 -26 -56 -105 -134 -183 -183 -42 -26 -90 -60 -108 -77 -62 -56 -143 -80 -201 -58 -21 8 -29 5 -54 -24 -32 -37 -80 -72 -87 -64 -3 3 2 25 12 50 9 26 13 53 9 64 -7 19 -8 19 -22 0 -8 -11 -14 -33 -14 -48 0 -18 -10 -38 -26 -53 l-27 -25 31 -6 c27 -6 31 -10 26 -29 -4 -17 -1 -25 13 -28 50 -15 94 -20 148 -19 33 1 96 -3 140 -9 44 -6 172 -11 285 -10 121 0 216 -4 231 -10 l27 -10 -44 -46 c-63 -67 -42 -83 52 -39 28 13 54 31 57 39 4 10 24 18 51 21 25 3 66 9 91 12 38 4 45 3 45 -12 0 -29 -45 -78 -96 -106 -67 -36 -186 -59 -244 -48 -45 9 -45 9 -91 -41 -47 -50 -63 -61 -53 -34 5 12 -3 15 -35 15 -43 0 -56 14 -21 23 15 4 20 14 20 40 0 32 -3 36 -42 49 -28 10 -53 12 -73 7 -17 -5 -34 -4 -39 1 -6 6 -25 10 -43 10 -27 0 -35 -5 -43 -26 -6 -14 -14 -23 -18 -20 -13 8 -52 -23 -52 -40 0 -8 -7 -14 -15 -14 -8 0 -17 -12 -21 -27 -15 -70 -28 -94 -74 -137 -29 -27 -58 -46 -72 -46 l-23 0 24 13 c35 18 38 35 4 30 -27 -4 -27 -4 -8 12 11 9 19 21 17 27 -2 6 5 20 15 31 17 20 17 20 -2 12 -11 -4 -39 -12 -62 -17 -26 -6 -43 -15 -43 -24 0 -8 4 -14 9 -14 6 0 11 -24 13 -52 l3 -53 39 -3 c30 -3 41 1 53 17 8 12 24 21 37 21 12 0 34 12 48 28 26 27 68 113 68 138 0 8 8 14 18 14 9 0 22 10 27 23 6 12 20 23 33 25 14 2 22 10 22 23 0 25 15 24 40 -1 12 -12 33 -20 55 -20 32 0 35 -2 35 -30 0 -23 4 -30 20 -30 16 0 20 -7 20 -31 l0 -32 52 5 c29 3 54 11 56 17 2 6 10 11 18 11 8 0 14 5 14 10 0 6 9 19 20 30 16 16 33 20 88 20 100 0 242 39 242 66 0 8 11 14 26 14 17 0 28 6 31 20 3 11 9 20 14 20 5 0 9 9 9 20 0 11 5 20 11 20 6 0 9 17 7 43 l-3 42 -53 0 c-52 0 -52 0 -52 31 0 19 6 34 15 38 10 4 15 -1 15 -14 0 -16 7 -20 35 -20 33 0 35 2 35 35 0 19 -4 35 -10 35 -5 0 -10 10 -10 21 0 20 -4 21 -52 15 -29 -3 -65 -6 -80 -6 -23 0 -28 -4 -28 -25 0 -16 -6 -25 -15 -25 -8 0 -15 9 -15 20 0 16 -7 20 -35 20 -31 0 -35 -3 -35 -27 l0 -28 -98 -3 c-53 -2 -101 -7 -106 -13 -6 -5 -45 -9 -88 -9 -66 0 -79 3 -88 19 -8 17 -6 20 13 23 14 2 23 11 25 25 4 25 50 43 110 43 30 0 32 2 32 34 0 19 -6 36 -12 39 -7 2 4 6 25 8 33 5 37 3 37 -18 0 -18 6 -23 25 -23 18 0 25 -5 25 -20 0 -16 7 -20 35 -20 34 0 35 1 35 40 0 29 -4 40 -15 40 -9 0 -15 9 -15 21 0 20 -4 21 -45 17 -39 -5 -45 -3 -45 13 0 11 6 19 14 19 7 0 16 9 19 19 4 15 16 20 58 24 69 7 159 29 159 39 0 4 8 8 18 8 9 0 37 11 61 25 55 32 127 34 164 5 14 -11 40 -20 60 -20 21 0 41 -7 52 -20 10 -11 31 -20 47 -20 24 0 31 -6 40 -31 10 -30 13 -31 54 -26 43 4 44 4 44 -24 0 -33 -23 -49 -69 -49 -17 0 -31 -4 -31 -10 0 -5 -22 -10 -50 -10 l-50 0 0 -34 c0 -32 3 -35 32 -38 35 -3 52 -28 19 -28 -12 0 -21 -6 -21 -15 0 -8 -7 -15 -15 -15 -10 0 -15 -10 -15 -33 0 -40 15 -57 52 -57 24 0 28 -4 28 -28 l0 -29 133 -9 c72 -5 231 -9 352 -9 l220 0 113 38 c62 21 143 52 179 68 35 16 71 29 79 29 21 0 17 30 -3 30 -17 1 -17 1 0 14 12 9 17 27 17 60 0 40 -3 46 -21 46 -12 0 -45 -18 -73 -40 -111 -89 -130 -100 -219 -129 -155 -52 -176 -53 -459 -40 -222 11 -253 14 -225 25 145 54 289 119 342 153 22 14 50 30 62 36 25 11 192 154 231 198 19 20 35 27 63 27 21 0 41 5 44 10 7 12 45 14 45 3 -1 -5 -7 -19 -15 -33 -8 -14 -14 -42 -15 -62 0 -36 1 -38 34 -38 28 0 38 7 61 40 26 37 55 53 55 30 0 -5 6 -10 14 -10 8 0 16 -10 18 -22 2 -17 11 -24 31 -26 l27 -3 0 266 c0 240 -2 268 -17 284 -25 25 -60 32 -77 15 -20 -19 -26 -18 -26 7 0 33 -24 17 -38 -26 -21 -65 -112 -246 -153 -306 -53 -79 -133 -159 -159 -159 -20 0 -20 1 -4 31 15 30 15 32 -7 55 -12 13 -17 24 -11 24 7 0 12 -4 12 -10 0 -5 7 -10 15 -10 9 0 15 9 15 22 0 17 3 19 12 10 19 -19 30 -14 18 7 -5 11 -10 22 -10 25 0 12 24 5 43 -11 19 -18 20 -17 15 15 -4 26 -1 32 13 32 12 0 16 5 13 14 -3 8 4 16 18 20 21 6 22 7 5 17 -9 6 -15 15 -11 20 4 6 11 6 19 -1 12 -10 12 -5 3 27 -5 21 -14 43 -19 49 -6 7 0 15 17 23 15 6 23 17 20 24 -3 6 -9 20 -12 29 -3 10 -21 20 -40 24 -19 3 -34 13 -36 22 -2 13 -15 17 -51 18 -26 1 -47 -2 -47 -7 0 -5 -4 -9 -10 -9 -5 0 -10 7 -10 15 0 8 7 15 15 15 23 0 18 16 -10 28 -32 15 -52 15 -60 1z m110 -359 c3 -4 -4 -10 -14 -13 -13 -3 -21 1 -24 13 -3 13 0 16 14 13 11 -3 21 -9 24 -13z m-49 -119 c-13 -20 -26 -11 -26 16 0 25 1 26 16 11 9 -9 13 -21 10 -27z m-104 -26 c-4 -25 -19 -41 -28 -32 -6 6 17 57 26 57 4 0 5 -11 2 -25z m53 -5 c-5 -8 -11 -8 -17 -2 -6 6 -7 16 -3 22 5 8 11 8 17 2 6 -6 7 -16 3 -22z m335 -405 c-14 -8 -34 -14 -45 -14 -13 0 -8 5 15 14 46 18 61 18 30 0z"></path><path id="pHGOxAPTC" d="M1632 1597 c-15 -18 -26 -67 -14 -67 14 0 29 21 37 53 8 28 -5 36 -23 14z"></path><path id="pqUYBmWI" d="M1952 1417 c-25 -27 -29 -57 -7 -57 20 0 92 48 99 66 10 25 -67 18 -92 -9z"></path><path id="pUobWxVbJ" d="M2680 1101 l0 -51 41 0 40 0 -3 48 c-3 47 -3 47 -40 50 l-38 3 0 -50z"></path><path id="pDq1fHt88" d="M2900 838 c0 -24 3 -60 6 -80 6 -35 9 -38 40 -38 38 0 40 6 28 108 -7 51 -7 52 -40 52 -33 0 -34 -1 -34 -42z"></path><path id="pHPNoao1M" d="M2365 802 c-44 -7 -51 -14 -25 -24 16 -6 26 -6 28 1 2 6 19 11 37 11 19 0 36 4 40 9 5 9 -33 10 -80 3z"></path><path id="pVgKUwmHR" d="M2930 645 c0 -33 2 -35 35 -35 33 0 35 2 35 35 0 33 -2 35 -35 35 -33 0 -35 -2 -35 -35z"></path><path id="pEN337DVs" d="M56 631 c-10 -11 -13 -21 -7 -25 10 -7 14 -3 24 27 8 22 4 22 -17 -2z"></path><path id="pEA6At7PD" d="M158 614 c-17 -9 -28 -23 -28 -35 0 -20 3 -21 75 -14 87 8 95 -2 45 -55 -22 -23 -30 -42 -30 -67 l0 -36 50 6 c49 6 50 6 50 -21 1 -46 24 -75 71 -89 70 -20 129 -17 170 11 31 21 44 24 92 19 40 -4 61 -2 76 9 23 16 107 14 125 -3 17 -16 86 -11 86 6 0 9 10 15 26 15 19 0 28 7 36 28 11 27 14 28 77 28 l66 -1 3 38 c2 27 -1 37 -11 37 -8 0 -36 3 -62 7 -46 6 -48 5 -43 -15 4 -16 2 -22 -9 -22 -9 0 -33 -16 -55 -36 -36 -33 -44 -35 -82 -30 -71 11 -125 8 -199 -10 -33 -8 -58 14 -112 95 -28 42 -33 46 -65 43 -46 -5 -58 -17 -37 -40 9 -10 17 -23 17 -28 0 -4 -13 6 -29 24 -17 17 -35 32 -42 32 -18 0 -5 -124 16 -156 16 -25 16 -25 -3 -15 -18 10 -34 39 -46 86 -3 11 -3 0 0 -25 4 -34 2 -42 -7 -33 -6 6 -16 51 -21 100 -11 95 -31 138 -44 90 -9 -38 -25 -34 -17 4 6 30 5 32 -20 25 -23 -5 -28 -2 -33 19 -7 30 -20 32 -27 5 -3 -11 -10 -20 -15 -20 -6 0 -8 9 -5 20 6 24 -2 25 -39 4z m358 -269 c-11 -8 -29 -15 -40 -14 -15 0 -11 4 14 14 45 17 49 17 26 0z"></path><path id="p16nMsas3V" d="M83 585 c-14 -10 -24 -12 -28 -5 -4 6 -15 3 -30 -7 -19 -14 -24 -27 -25 -60 0 -35 3 -43 18 -43 12 0 23 13 32 35 11 28 19 35 42 35 24 0 28 4 28 30 0 34 -6 36 -37 15z"></path><path id="pueJjgPN6" d="M1453 574 c-26 -20 -30 -28 -20 -39 6 -7 15 -11 19 -9 3 2 13 1 22 -2 14 -5 12 -10 -9 -30 -14 -13 -31 -24 -38 -24 -19 0 -77 39 -77 51 0 7 -7 8 -17 4 -10 -4 -28 -9 -40 -10 -12 -2 -27 -6 -33 -10 -6 -4 -25 -8 -42 -10 -37 -5 -42 -9 -35 -30 8 -19 57 -20 103 0 33 13 37 13 57 -5 30 -29 124 -28 161 1 30 23 37 83 11 93 -8 3 -15 15 -15 26 0 26 -8 25 -47 -6z"></path><path id="pV6wWN2Ry" d="M633 515 c-10 -11 -9 -20 3 -47 l15 -33 -4 33 c-4 39 -2 40 17 5 20 -37 20 -11 1 27 -18 34 -16 34 -32 15z"></path><path id="pQ4NaPV3P" d="M880 517 c0 -18 30 -65 46 -71 10 -4 24 0 33 9 15 15 14 18 -8 36 -13 11 -31 17 -39 14 -9 -3 -19 0 -24 7 -4 7 -8 9 -8 5z"></path><path id="p1HKzVI0Ws" d="M712 481 c2 -21 11 -39 24 -48 20 -13 21 -12 18 13 -1 15 -12 36 -24 48 l-21 21 3 -34z"></path><path id="p14PHPWO71" d="M0 390 c0 -33 3 -40 20 -40 17 0 20 7 20 40 0 33 -3 40 -20 40 -17 0 -20 -7 -20 -40z"></path><path id="pKOUIp2vH" d="M3110 165 c0 -33 2 -35 35 -35 33 0 35 2 35 35 0 33 -2 35 -35 35 -33 0 -35 -2 -35 -35z"></path></g></g><g id="l5PMBJCwCNRt4bUfl7bQCD2" fill="rgb(208,190,177)" style="transform: none;"><g><path id="p17VNT1x8" d="M3717 1542 c-10 -10 -17 -24 -17 -31 0 -7 -15 -27 -32 -45 -18 -18 -45 -46 -59 -62 -37 -43 -206 -187 -232 -199 -12 -6 -40 -22 -62 -36 -41 -26 -199 -100 -245 -114 -14 -4 -42 -16 -62 -26 -21 -11 -50 -20 -65 -21 -16 -1 -34 -6 -41 -11 -9 -7 -18 -5 -30 8 -16 18 -16 18 0 6 15 -11 19 -11 24 2 3 9 3 20 0 26 -3 5 3 7 14 4 17 -5 20 0 20 30 0 27 5 37 21 42 11 4 23 4 26 1 3 -3 12 2 21 10 12 12 17 13 23 3 4 -8 11 -10 16 -6 4 4 2 17 -5 27 -10 16 -9 21 8 30 13 7 20 21 20 40 0 20 5 30 15 30 8 0 15 -7 15 -15 0 -21 13 -19 35 5 16 18 16 22 2 52 -9 18 -26 39 -37 46 -19 12 -25 11 -46 -9 -23 -22 -24 -22 -44 -4 -20 18 -20 18 -20 -6 -1 -19 -5 -16 -23 20 -23 46 -47 65 -47 37 0 -21 -13 -20 -34 3 -23 26 -73 44 -79 28 -2 -6 -17 -1 -38 15 -31 23 -41 25 -104 21 -49 -3 -84 -12 -116 -29 -26 -13 -54 -24 -62 -24 -8 0 -18 -6 -20 -12 -4 -8 -8 -4 -13 10 -8 28 -26 24 -35 -9 -4 -13 -7 -21 -8 -16 -1 4 -15 0 -32 -8 -18 -10 -48 -15 -72 -13 -35 3 -43 0 -52 -19 -5 -13 -18 -23 -27 -23 -14 0 -18 -7 -16 -31 3 -30 1 -32 -37 -36 -47 -5 -51 -8 -37 -26 9 -10 7 -17 -8 -30 -11 -9 -20 -13 -20 -9 0 4 -5 0 -10 -9 -5 -9 -26 -20 -45 -23 -30 -6 -36 -11 -33 -29 2 -15 -4 -22 -22 -27 -31 -7 -36 -30 -15 -69 l16 -31 109 0 c60 0 111 4 114 9 6 9 89 7 106 -4 5 -3 10 1 10 10 0 12 6 14 28 9 15 -4 29 -11 30 -16 7 -16 30 -8 35 12 6 22 42 28 50 8 4 -10 6 -10 6 0 2 20 21 14 21 -7 0 -13 -9 -21 -30 -26 -32 -7 -51 -26 -31 -33 9 -3 9 -7 0 -18 -9 -11 -15 -11 -25 -3 -10 8 -14 8 -14 0 0 -6 -6 -11 -13 -11 -7 0 -28 -16 -47 -35 -33 -35 -34 -35 -9 -35 36 1 106 35 119 59 7 15 20 21 44 21 18 0 57 5 87 10 33 6 56 7 62 1 11 -11 -37 -101 -54 -101 -5 0 -22 -9 -38 -21 -33 -24 -158 -59 -213 -59 -22 0 -48 5 -59 10 -16 9 -24 5 -49 -22 -17 -18 -30 -35 -30 -39 0 -4 -15 -14 -34 -23 -38 -18 -61 -21 -33 -5 24 14 12 29 -24 29 -19 0 -29 5 -29 15 0 8 3 14 8 14 24 -4 32 4 32 32 0 19 -4 29 -12 27 -6 -2 -20 4 -30 14 -24 24 -90 25 -81 1 5 -13 1 -12 -23 5 -16 11 -42 20 -59 19 -24 -2 -30 -6 -29 -24 0 -15 -5 -23 -15 -23 -23 -1 -54 -27 -46 -39 4 -7 -4 -11 -20 -11 -20 0 -26 -4 -21 -15 8 -23 -39 -119 -74 -149 -49 -41 -90 -60 -103 -47 -8 8 -7 11 5 11 8 0 21 7 28 15 11 13 8 15 -13 15 -19 0 -25 4 -21 14 3 8 12 12 19 10 7 -3 16 -1 20 5 3 6 1 11 -6 11 -7 0 -5 8 7 22 19 21 19 21 -6 14 -55 -16 -100 -23 -100 -15 0 16 -15 9 -54 -26 -21 -19 -44 -36 -50 -38 -13 -5 -3 -18 16 -21 7 -1 21 -7 32 -12 17 -10 16 -12 -9 -32 -37 -30 -76 -28 -108 4 l-27 26 -52 -17 c-51 -17 -198 -22 -234 -8 -8 3 -14 -1 -14 -10 0 -17 21 -27 58 -27 19 0 23 -3 15 -11 -9 -9 -23 -9 -58 0 -53 13 -59 11 -80 -30 -11 -20 -23 -29 -40 -29 -16 0 -25 -6 -25 -15 0 -20 -5 -19 -41 7 -25 19 -33 20 -49 10 -13 -8 -20 -8 -20 -2 0 14 -67 2 -102 -18 -25 -14 -29 -14 -45 1 -16 14 -24 14 -53 4 -19 -7 -52 -23 -73 -36 -37 -23 -42 -23 -94 -11 -58 14 -83 42 -83 93 0 14 -7 27 -14 30 -8 3 -18 22 -22 41 -3 20 -10 36 -15 36 -5 0 -6 14 -2 31 6 30 5 32 -20 25 -23 -5 -28 -2 -33 19 -7 30 -20 32 -27 6 -5 -20 -46 -26 -57 -9 -8 10 -82 -11 -75 -22 3 -4 -3 -7 -12 -6 -20 3 -28 22 -14 31 6 3 11 13 11 22 0 14 -3 14 -20 -2 -12 -10 -18 -25 -16 -32 3 -7 1 -15 -4 -18 -5 -3 -7 -12 -4 -20 4 -8 -1 -17 -9 -21 -12 -4 -15 -45 -16 -270 l-2 -264 2001 0 2000 0 0 525 0 525 -31 0 c-17 0 -67 -18 -112 -41 -45 -23 -98 -46 -117 -51 -105 -29 -201 -47 -250 -46 -51 1 -50 1 24 10 99 11 283 70 329 106 20 15 63 47 96 72 l60 45 0 86 c1 72 -2 88 -15 93 -15 6 -15 8 1 26 17 19 17 20 1 20 -11 0 -16 6 -14 18 2 9 9 16 16 15 6 -2 9 4 5 13 -5 13 -8 13 -25 -3 -24 -22 -48 -25 -48 -7 0 8 5 14 10 14 6 0 10 4 10 9 0 5 -8 8 -17 6 -10 -2 -23 -4 -30 -4 -6 -1 -31 -28 -54 -61 -23 -33 -44 -58 -46 -56 -5 4 28 69 52 102 12 17 13 23 2 38 -11 15 -18 16 -62 5 -28 -6 -58 -15 -67 -20 -37 -19 -38 -2 -3 39 33 39 49 82 31 82 -7 0 -20 -8 -29 -18z m-987 -448 c0 -8 -4 -14 -10 -14 -5 0 -10 9 -10 21 0 11 5 17 10 14 6 -3 10 -13 10 -21z m338 -161 c-10 -2 -26 -2 -35 0 -10 3 -2 5 17 5 19 0 27 -2 18 -5z m272 -13 c51 -7 35 -8 -73 -5 -75 2 -144 8 -153 13 -18 10 129 5 226 -8z"></path><path id="pjscTT4Ao" d="M3190 1205 c0 -16 16 -20 24 -6 3 5 -1 11 -9 15 -9 3 -15 0 -15 -9z"></path><path id="pRAXCxFqa" d="M1547 1163 c-4 -3 -7 -19 -7 -34 0 -16 -9 -37 -22 -49 l-22 -20 25 0 c19 0 27 8 36 38 6 20 15 45 18 55 7 17 -14 25 -28 10z"></path><path id="pM19gVbra" d="M320 530 c0 -14 5 -32 10 -40 8 -12 10 -10 10 10 0 14 -5 32 -10 40 -8 12 -10 10 -10 -10z"></path><path id="pDMQE4cZi" d="M496 491 c-7 -10 9 -67 25 -89 6 -10 -6 1 -27 24 -37 39 -40 40 -57 23 -11 -9 -17 -26 -14 -36 4 -16 5 -16 6 0 0 9 5 17 10 17 16 0 23 -40 10 -56 -9 -11 -9 -18 -1 -26 8 -8 25 -4 63 15 28 15 59 27 70 27 22 0 24 11 7 28 -9 9 -9 12 1 12 9 0 7 10 -8 32 -14 24 -29 34 -50 35 -17 2 -32 -1 -35 -6z"></path><path id="pdh6Ezw6d" d="M902 483 c4 -19 44 -28 54 -12 8 13 -13 29 -39 29 -12 0 -17 -6 -15 -17z"></path><path id="pIXi7j6dR" d="M722 469 c2 -7 10 -15 17 -17 8 -3 12 1 9 9 -2 7 -10 15 -17 17 -8 3 -12 -1 -9 -9z"></path></g></g></svg>